<svg aria-roledescription="flowchart-v2" role="graphics-document document" viewBox="-8 -36.499000549316406 3164.4765625 729.86669921875" style="max-width: 3164.48px; background-color: white;" class="flowchart" xmlns:xlink="http://www.w3.org/1999/xlink" xmlns="http://www.w3.org/2000/svg" width="100%" id="my-svg"><style>#my-svg{font-family:Arial,sans-serif;font-size:16px;fill:#172554;}#my-svg .error-icon{fill:#f8fafc;}#my-svg .error-text{fill:#070503;stroke:#070503;}#my-svg .edge-thickness-normal{stroke-width:1px;}#my-svg .edge-thickness-thick{stroke-width:3.5px;}#my-svg .edge-pattern-solid{stroke-dasharray:0;}#my-svg .edge-thickness-invisible{stroke-width:0;fill:none;}#my-svg .edge-pattern-dashed{stroke-dasharray:3;}#my-svg .edge-pattern-dotted{stroke-dasharray:2;}#my-svg .marker{fill:#475569;stroke:#475569;}#my-svg .marker.cross{stroke:#475569;}#my-svg svg{font-family:Arial,sans-serif;font-size:16px;}#my-svg p{margin:0;}#my-svg .label{font-family:Arial,sans-serif;color:#172554;}#my-svg .cluster-label text{fill:#070503;}#my-svg .cluster-label span{color:#070503;}#my-svg .cluster-label span p{background-color:transparent;}#my-svg .label text,#my-svg span{fill:#172554;color:#172554;}#my-svg .node rect,#my-svg .node circle,#my-svg .node ellipse,#my-svg .node polygon,#my-svg .node path{fill:#eff6ff;stroke:#3b82f6;stroke-width:1px;}#my-svg .rough-node .label text,#my-svg .node .label text,#my-svg .image-shape .label,#my-svg .icon-shape .label{text-anchor:middle;}#my-svg .node .katex path{fill:#000;stroke:#000;stroke-width:1px;}#my-svg .rough-node .label,#my-svg .node .label,#my-svg .image-shape .label,#my-svg .icon-shape .label{text-align:center;}#my-svg .node.clickable{cursor:pointer;}#my-svg .root .anchor path{fill:#475569!important;stroke-width:0;stroke:#475569;}#my-svg .arrowheadPath{fill:#0b0b0b;}#my-svg .edgePath .path{stroke:#475569;stroke-width:2.0px;}#my-svg .flowchart-link{stroke:#475569;fill:none;}#my-svg .edgeLabel{background-color:#f0fdf4;text-align:center;}#my-svg .edgeLabel p{background-color:#f0fdf4;}#my-svg .edgeLabel rect{opacity:0.5;background-color:#f0fdf4;fill:#f0fdf4;}#my-svg .labelBkg{background-color:rgba(240, 253, 244, 0.5);}#my-svg .cluster rect{fill:#f8fafc;stroke:hsl(210, 0%, 88.0392156863%);stroke-width:1px;}#my-svg .cluster text{fill:#070503;}#my-svg .cluster span{color:#070503;}#my-svg div.mermaidTooltip{position:absolute;text-align:center;max-width:200px;padding:2px;font-family:Arial,sans-serif;font-size:12px;background:#f8fafc;border:1px solid hsl(210, 0%, 88.0392156863%);border-radius:2px;pointer-events:none;z-index:100;}#my-svg .flowchartTitleText{text-anchor:middle;font-size:18px;fill:#172554;}#my-svg rect.text{fill:none;stroke-width:0;}#my-svg .icon-shape,#my-svg .image-shape{background-color:#f0fdf4;text-align:center;}#my-svg .icon-shape p,#my-svg .image-shape p{background-color:#f0fdf4;padding:2px;}#my-svg .icon-shape rect,#my-svg .image-shape rect{opacity:0.5;background-color:#f0fdf4;fill:#f0fdf4;}#my-svg :root{--mermaid-font-family:"trebuchet ms",verdana,arial,sans-serif;}</style><g><marker orient="auto" markerHeight="8" markerWidth="8" markerUnits="userSpaceOnUse" refY="5" refX="5" viewBox="0 0 10 10" class="marker flowchart-v2" id="my-svg_flowchart-v2-pointEnd"><path style="stroke-width: 1; stroke-dasharray: 1, 0;" class="arrowMarkerPath" d="M 0 0 L 10 5 L 0 10 z"/></marker><marker orient="auto" markerHeight="8" markerWidth="8" markerUnits="userSpaceOnUse" refY="5" refX="4.5" viewBox="0 0 10 10" class="marker flowchart-v2" id="my-svg_flowchart-v2-pointStart"><path style="stroke-width: 1; stroke-dasharray: 1, 0;" class="arrowMarkerPath" d="M 0 5 L 10 10 L 10 0 z"/></marker><marker orient="auto" markerHeight="11" markerWidth="11" markerUnits="userSpaceOnUse" refY="5" refX="11" viewBox="0 0 10 10" class="marker flowchart-v2" id="my-svg_flowchart-v2-circleEnd"><circle style="stroke-width: 1; stroke-dasharray: 1, 0;" class="arrowMarkerPath" r="5" cy="5" cx="5"/></marker><marker orient="auto" markerHeight="11" markerWidth="11" markerUnits="userSpaceOnUse" refY="5" refX="-1" viewBox="0 0 10 10" class="marker flowchart-v2" id="my-svg_flowchart-v2-circleStart"><circle style="stroke-width: 1; stroke-dasharray: 1, 0;" class="arrowMarkerPath" r="5" cy="5" cx="5"/></marker><marker orient="auto" markerHeight="11" markerWidth="11" markerUnits="userSpaceOnUse" refY="5.2" refX="12" viewBox="0 0 11 11" class="marker cross flowchart-v2" id="my-svg_flowchart-v2-crossEnd"><path style="stroke-width: 2; stroke-dasharray: 1, 0;" class="arrowMarkerPath" d="M 1,1 l 9,9 M 10,1 l -9,9"/></marker><marker orient="auto" markerHeight="11" markerWidth="11" markerUnits="userSpaceOnUse" refY="5.2" refX="-1" viewBox="0 0 11 11" class="marker cross flowchart-v2" id="my-svg_flowchart-v2-crossStart"><path style="stroke-width: 2; stroke-dasharray: 1, 0;" class="arrowMarkerPath" d="M 1,1 l 9,9 M 10,1 l -9,9"/></marker><g class="root"><g class="clusters"/><g class="edgePaths"><path marker-end="url(#my-svg_flowchart-v2-pointEnd)" style="" class="edge-thickness-normal edge-pattern-solid edge-thickness-normal edge-pattern-solid flowchart-link" id="L_traffic_a_0" d="M210.395,402.718L224.163,395.302C237.93,387.885,265.465,373.052,282.733,365.635C300,358.218,307,358.218,310.5,358.218L314,358.218"/><path marker-end="url(#my-svg_flowchart-v2-pointEnd)" style="" class="edge-thickness-normal edge-pattern-solid edge-thickness-normal edge-pattern-solid flowchart-link" id="L_a_adb_1" d="M451.25,352.78L471.285,351.145C491.32,349.51,531.391,346.239,570.794,344.604C610.198,342.968,648.935,342.968,668.303,342.968L687.672,342.968"/><path marker-end="url(#my-svg_flowchart-v2-pointEnd)" style="" class="edge-thickness-normal edge-pattern-solid edge-thickness-normal edge-pattern-solid flowchart-link" id="L_a_b_2" d="M451.25,384.428L471.285,392.31C491.32,400.192,531.391,415.955,579.819,423.837C628.247,431.718,685.034,431.718,741.789,431.718C798.544,431.718,855.268,431.718,920.497,431.718C985.727,431.718,1059.461,431.718,1131.941,431.718C1204.422,431.718,1275.648,431.718,1351.678,431.718C1427.708,431.718,1508.542,431.718,1589.97,431.718C1671.398,431.718,1753.422,431.718,1815.057,433.375C1876.693,435.031,1917.941,438.343,1938.565,440L1959.189,441.656"/><path marker-end="url(#my-svg_flowchart-v2-pointEnd)" style="" class="edge-thickness-normal edge-pattern-solid edge-thickness-normal edge-pattern-solid flowchart-link" id="L_b_bdb_3" d="M2057.246,474.968L2072.55,496.21C2087.854,517.452,2118.462,559.935,2137.266,581.176C2156.07,602.418,2163.07,602.418,2166.57,602.418L2170.07,602.418"/><path marker-end="url(#my-svg_flowchart-v2-pointEnd)" style="" class="edge-thickness-normal edge-pattern-solid edge-thickness-normal edge-pattern-solid flowchart-link" id="L_bdb_dbz_4" d="M2288.836,602.418L2296.243,602.418C2303.651,602.418,2318.466,602.418,2332.654,604.875C2346.843,607.333,2360.404,612.248,2367.185,614.705L2373.966,617.162"/><path marker-end="url(#my-svg_flowchart-v2-pointEnd)" style="" class="edge-thickness-normal edge-pattern-solid edge-thickness-normal edge-pattern-solid flowchart-link" id="L_dbz_kafka_5" d="M2377.727,662.929L2370.319,664.919C2362.911,666.908,2348.096,670.888,2323.717,672.878C2299.339,674.868,2265.396,674.868,2234.694,674.868C2203.992,674.868,2176.531,674.868,2144.255,674.868C2111.978,674.868,2074.885,674.868,2022.615,674.868C1970.344,674.868,1902.895,674.868,1828.158,674.868C1753.422,674.868,1671.398,674.868,1589.97,674.868C1508.542,674.868,1427.708,674.868,1354.936,624.612C1282.164,574.356,1217.454,473.844,1185.099,423.588L1152.743,373.332"/><path marker-end="url(#my-svg_flowchart-v2-pointEnd)" style="" class="edge-thickness-normal edge-pattern-solid edge-thickness-normal edge-pattern-solid flowchart-link" id="L_adb_kafka_6" d="M791.969,342.968L811.973,342.968C831.977,342.968,871.984,342.968,912.82,342.968C953.656,342.968,995.32,342.968,1016.152,342.968L1036.984,342.968"/><path marker-end="url(#my-svg_flowchart-v2-pointEnd)" style="" class="edge-thickness-normal edge-pattern-solid edge-thickness-normal edge-pattern-solid flowchart-link" id="L_kafka_c_7" d="M1182.931,315.968L1210.255,301.135C1237.579,286.302,1292.227,256.635,1337.634,241.802C1383.042,226.968,1419.208,226.968,1437.292,226.968L1455.375,226.968"/><path marker-end="url(#my-svg_flowchart-v2-pointEnd)" style="" class="edge-thickness-normal edge-pattern-solid edge-thickness-normal edge-pattern-solid flowchart-link" id="L_c_cdb_8" d="M1637.68,187.968L1670.641,161.357C1703.602,134.746,1769.524,81.523,1825.072,57.161C1880.62,32.799,1925.794,37.297,1948.382,39.546L1970.969,41.796"/><path marker-end="url(#my-svg_flowchart-v2-pointEnd)" style="" class="edge-thickness-normal edge-pattern-solid edge-thickness-normal edge-pattern-solid flowchart-link" id="L_cdb_kafka_9" d="M1974.949,54.708L1951.699,57.023C1928.448,59.339,1881.947,63.969,1817.684,66.285C1753.422,68.6,1671.398,68.6,1589.97,68.6C1508.542,68.6,1427.708,68.6,1355.593,109.302C1283.477,150.004,1220.079,231.408,1188.38,272.11L1156.681,312.813"/><path marker-end="url(#my-svg_flowchart-v2-pointEnd)" style="" class="edge-thickness-normal edge-pattern-solid edge-thickness-normal edge-pattern-solid flowchart-link" id="L_kafka_d_10" d="M1225.406,342.968L1245.651,342.968C1265.896,342.968,1306.385,342.968,1355.66,342.968C1404.935,342.968,1462.995,342.968,1492.025,342.968L1521.055,342.968"/><path marker-end="url(#my-svg_flowchart-v2-pointEnd)" style="" class="edge-thickness-normal edge-pattern-solid edge-thickness-normal edge-pattern-solid flowchart-link" id="L_d_b_11" d="M1644.626,369.968L1676.429,385.51C1708.232,401.052,1771.839,432.135,1824.266,446.122C1876.693,460.11,1917.94,457.001,1938.563,455.447L1959.187,453.893"/><path marker-end="url(#my-svg_flowchart-v2-pointEnd)" style="" class="edge-thickness-normal edge-pattern-solid edge-thickness-normal edge-pattern-solid flowchart-link" id="L_d_ddb_12" d="M1628.231,315.968L1662.767,291.971C1697.303,267.973,1766.374,219.978,1826.436,195.98C1886.499,171.983,1937.552,171.983,1963.079,171.983L1988.605,171.983"/><path marker-end="url(#my-svg_flowchart-v2-pointEnd)" style="" class="edge-thickness-normal edge-pattern-solid edge-thickness-normal edge-pattern-solid flowchart-link" id="L_a_metrics_13" d="M397.67,331.218L426.635,271.266C455.6,211.313,513.53,91.407,570.889,31.454C628.247,-28.499,685.034,-28.499,741.789,-28.499C798.544,-28.499,855.268,-28.499,920.497,-28.499C985.727,-28.499,1059.461,-28.499,1131.941,-28.499C1204.422,-28.499,1275.648,-28.499,1351.678,-28.499C1427.708,-28.499,1508.542,-28.499,1589.97,-28.499C1671.398,-28.499,1753.422,-28.499,1828.158,-28.499C1902.895,-28.499,1970.344,-28.499,2022.615,-28.499C2074.885,-28.499,2111.978,-28.499,2144.255,-28.499C2176.531,-28.499,2203.992,-28.499,2234.694,-28.499C2265.396,-28.499,2299.339,-28.499,2335.445,-28.499C2371.552,-28.499,2409.823,-28.499,2444.853,-28.499C2479.883,-28.499,2511.672,-28.499,2546.809,32.674C2581.946,93.846,2620.431,216.191,2639.673,277.364L2658.916,338.536"/><path marker-end="url(#my-svg_flowchart-v2-pointEnd)" style="" class="edge-thickness-normal edge-pattern-solid edge-thickness-normal edge-pattern-solid flowchart-link" id="L_b_metrics_14" d="M2046.554,420.968L2063.64,368.313C2080.726,315.657,2114.898,210.346,2145.715,157.69C2176.531,105.034,2203.992,105.034,2234.694,105.034C2265.396,105.034,2299.339,105.034,2335.445,105.034C2371.552,105.034,2409.823,105.034,2444.853,105.034C2479.883,105.034,2511.672,105.034,2546.009,143.985C2580.345,182.935,2617.229,260.836,2635.672,299.786L2654.114,338.737"/><path marker-end="url(#my-svg_flowchart-v2-pointEnd)" style="" class="edge-thickness-normal edge-pattern-solid edge-thickness-normal edge-pattern-solid flowchart-link" id="L_c_metrics_15" d="M1719.375,235.025L1738.72,236.224C1758.065,237.423,1796.755,239.821,1849.825,241.019C1902.895,242.218,1970.344,242.218,2022.615,242.218C2074.885,242.218,2111.978,242.218,2144.255,242.218C2176.531,242.218,2203.992,242.218,2234.694,242.218C2265.396,242.218,2299.339,242.218,2335.445,242.218C2371.552,242.218,2409.823,242.218,2444.853,242.218C2479.883,242.218,2511.672,242.218,2543.527,258.432C2575.382,274.646,2607.304,307.074,2623.264,323.288L2639.225,339.501"/><path marker-end="url(#my-svg_flowchart-v2-pointEnd)" style="" class="edge-thickness-normal edge-pattern-solid edge-thickness-normal edge-pattern-solid flowchart-link" id="L_d_metrics_16" d="M1653.695,346.955L1683.987,348.832C1714.279,350.709,1774.862,354.464,1838.878,356.341C1902.895,358.218,1970.344,358.218,2022.615,358.218C2074.885,358.218,2111.978,358.218,2144.255,358.218C2176.531,358.218,2203.992,358.218,2234.694,358.218C2265.396,358.218,2299.339,358.218,2335.445,358.218C2371.552,358.218,2409.823,358.218,2444.853,358.218C2479.883,358.218,2511.672,358.218,2531.069,358.53C2550.466,358.842,2557.471,359.465,2560.974,359.776L2564.477,360.088"/><path marker-end="url(#my-svg_flowchart-v2-pointEnd)" style="" class="edge-thickness-normal edge-pattern-solid edge-thickness-normal edge-pattern-solid flowchart-link" id="L_traffic_metrics_17" d="M226.571,480.718L237.643,485.593C248.714,490.468,270.857,500.218,297.199,505.093C323.542,509.968,354.083,509.968,400.493,509.968C446.904,509.968,509.182,509.968,568.715,509.968C628.247,509.968,685.034,509.968,741.789,509.968C798.544,509.968,855.268,509.968,920.497,509.968C985.727,509.968,1059.461,509.968,1131.941,509.968C1204.422,509.968,1275.648,509.968,1351.678,509.968C1427.708,509.968,1508.542,509.968,1589.97,509.968C1671.398,509.968,1753.422,509.968,1828.158,509.968C1902.895,509.968,1970.344,509.968,2022.615,509.968C2074.885,509.968,2111.978,509.968,2144.255,509.968C2176.531,509.968,2203.992,509.968,2234.694,509.968C2265.396,509.968,2299.339,509.968,2335.445,509.968C2371.552,509.968,2409.823,509.968,2444.853,509.968C2479.883,509.968,2511.672,509.968,2543.976,491.53C2576.281,473.092,2609.1,436.216,2625.51,417.778L2641.92,399.34"/><path marker-end="url(#my-svg_flowchart-v2-pointEnd)" style="" class="edge-thickness-normal edge-pattern-solid edge-thickness-normal edge-pattern-solid flowchart-link" id="L_kafka_metrics_18" d="M1164.047,369.968L1194.519,396.635C1224.99,423.302,1285.932,476.635,1356.82,503.302C1427.708,529.968,1508.542,529.968,1589.97,529.968C1671.398,529.968,1753.422,529.968,1828.158,529.968C1902.895,529.968,1970.344,529.968,2022.615,529.968C2074.885,529.968,2111.978,529.968,2144.255,529.968C2176.531,529.968,2203.992,529.968,2234.694,529.968C2265.396,529.968,2299.339,529.968,2335.445,529.968C2371.552,529.968,2409.823,529.968,2444.853,529.968C2479.883,529.968,2511.672,529.968,2544.508,508.225C2577.345,486.481,2611.229,442.994,2628.171,421.251L2645.113,399.507"/><path marker-end="url(#my-svg_flowchart-v2-pointEnd)" style="" class="edge-thickness-normal edge-pattern-solid edge-thickness-normal edge-pattern-solid flowchart-link" id="L_dbz_metrics_19" d="M2518.461,644.026L2522.628,644.026C2526.794,644.026,2535.128,644.026,2557.826,603.354C2580.524,562.682,2617.586,481.337,2636.118,440.664L2654.649,399.992"/><path marker-end="url(#my-svg_flowchart-v2-pointEnd)" style="" class="edge-thickness-normal edge-pattern-solid edge-thickness-normal edge-pattern-solid flowchart-link" id="L_metrics_prometheus_20" d="M2768.758,369.352L2772.924,369.352C2777.091,369.352,2785.424,369.352,2793.091,369.352C2800.758,369.352,2807.758,369.352,2811.258,369.352L2814.758,369.352"/><path marker-end="url(#my-svg_flowchart-v2-pointEnd)" style="" class="edge-thickness-normal edge-pattern-solid edge-thickness-normal edge-pattern-solid flowchart-link" id="L_prometheus_grafana_21" d="M2974.305,369.352L2978.471,369.352C2982.638,369.352,2990.971,369.352,2998.638,369.352C3006.305,369.352,3013.305,369.352,3016.805,369.352L3020.305,369.352"/></g><g class="edgeLabels"><g><rect style="stroke: none" class="background"/></g><g><rect style="stroke: none" class="background"/></g><g><rect style="stroke: none" class="background"/></g><g><rect style="stroke: none" class="background"/></g><g><rect style="stroke: none" class="background"/></g><g><rect style="stroke: none" class="background"/></g><g><rect style="stroke: none" class="background"/></g><g><rect style="stroke: none" class="background"/></g><g><rect style="stroke: none" class="background"/></g><g><rect style="stroke: none" class="background"/></g><g><rect style="stroke: none" class="background"/></g><g><rect style="stroke: none" class="background"/></g><g class="edgeLabel"><g transform="translate(0, 0)" class="label"><text y="-10.1"><tspan dy="1.1em" y="-0.1em" x="0" class="text-outer-tspan"/></text></g></g><g transform="translate(571.4609375, 342.96836280822754)" class="edgeLabel"><g transform="translate(-95.2109375, -20.299999237060547)" class="label"><g><rect height="40.599998474121094" width="190.421875" y="-1" x="-3" style="" class="background"/><text style="" y="-10.1"><tspan dy="1.1em" y="-0.1em" x="0" class="text-outer-tspan"><tspan font-weight="normal" class="text-inner-tspan" font-style="normal">TX:</tspan><tspan font-weight="normal" class="text-inner-tspan" font-style="normal"> vehicle</tspan><tspan font-weight="normal" class="text-inner-tspan" font-style="normal"> +</tspan><tspan font-weight="normal" class="text-inner-tspan" font-style="normal"> outbox</tspan><tspan font-weight="normal" class="text-inner-tspan" font-style="normal"> +</tspan></tspan><tspan dy="1.1em" y="1em" x="0" class="text-outer-tspan"><tspan font-weight="normal" class="text-inner-tspan" font-style="normal">REST</tspan><tspan font-weight="normal" class="text-inner-tspan" font-style="normal"> command</tspan></tspan></text></g></g></g><g transform="translate(1133.1953125, 431.71836280822754)" class="edgeLabel"><g transform="translate(-101.1796875, -11.5)" class="label"><g><rect height="23" width="202.359375" y="-1" x="-2" style="" class="background"/><text style="" y="-10.1"><tspan dy="1.1em" y="-0.1em" x="0" class="text-outer-tspan"><tspan font-weight="normal" class="text-inner-tspan" font-style="normal">POST</tspan><tspan font-weight="normal" class="text-inner-tspan" font-style="normal"> internal</tspan><tspan font-weight="normal" class="text-inner-tspan" font-style="normal"> warranties</tspan></tspan></text></g></g></g><g class="edgeLabel"><g transform="translate(0, 0)" class="label"><text y="-10.1"><tspan dy="1.1em" y="-0.1em" x="0" class="text-outer-tspan"/></text></g></g><g transform="translate(2333.28125, 602.4180202484131)" class="edgeLabel"><g transform="translate(-19.4453125, -11.5)" class="label"><g><rect height="23" width="38.890625" y="-1" x="-2" style="" class="background"/><text style="" y="-10.1"><tspan dy="1.1em" y="-0.1em" x="0" class="text-outer-tspan"><tspan font-weight="normal" class="text-inner-tspan" font-style="normal">WAL</tspan></tspan></text></g></g></g><g transform="translate(2037.79296875, 674.8676776885986)" class="edgeLabel"><g transform="translate(-86.27734375, -11.5)" class="label"><g><rect height="23" width="172.5546875" y="-1" x="-2" style="" class="background"/><text style="" y="-10.1"><tspan dy="1.1em" y="-0.1em" x="0" class="text-outer-tspan"><tspan font-weight="normal" class="text-inner-tspan" font-style="normal">warranty</tspan><tspan font-weight="normal" class="text-inner-tspan" font-style="normal"> CDC</tspan><tspan font-weight="normal" class="text-inner-tspan" font-style="normal"> c/u/d/r</tspan></tspan></text></g></g></g><g transform="translate(911.9921875, 342.96836280822754)" class="edgeLabel"><g transform="translate(-95.0234375, -11.5)" class="label"><g><rect height="23" width="190.046875" y="-1" x="-2" style="" class="background"/><text style="" y="-10.1"><tspan dy="1.1em" y="-0.1em" x="0" class="text-outer-tspan"><tspan font-weight="normal" class="text-inner-tspan" font-style="normal">Outbox</tspan><tspan font-weight="normal" class="text-inner-tspan" font-style="normal"> vehicle.created</tspan></tspan></text></g></g></g><g transform="translate(1346.875, 226.96836280822754)" class="edgeLabel"><g transform="translate(-87.5, -11.5)" class="label"><g><rect height="23" width="175" y="-1" x="-2" style="" class="background"/><text style="" y="-10.1"><tspan dy="1.1em" y="-0.1em" x="0" class="text-outer-tspan"><tspan font-weight="normal" class="text-inner-tspan" font-style="normal">Domain</tspan><tspan font-weight="normal" class="text-inner-tspan" font-style="normal"> event</tspan><tspan font-weight="normal" class="text-inner-tspan" font-style="normal"> +</tspan><tspan font-weight="normal" class="text-inner-tspan" font-style="normal"> CDC</tspan></tspan></text></g></g></g><g transform="translate(1835.4453125, 28.299999237060547)" class="edgeLabel"><g transform="translate(-83.65625, -20.299999237060547)" class="label"><g><rect height="40.599998474121094" width="167.3125" y="-1" x="-2" style="" class="background"/><text style="" y="-10.1"><tspan dy="1.1em" y="-0.1em" x="0" class="text-outer-tspan"><tspan font-weight="normal" class="text-inner-tspan" font-style="normal">Prepare</tspan><tspan font-weight="normal" class="text-inner-tspan" font-style="normal"> READY</tspan><tspan font-weight="normal" class="text-inner-tspan" font-style="normal"> after</tspan></tspan><tspan dy="1.1em" y="1em" x="0" class="text-outer-tspan"><tspan font-weight="normal" class="text-inner-tspan" font-style="normal">both</tspan><tspan font-weight="normal" class="text-inner-tspan" font-style="normal"> inputs</tspan></tspan></text></g></g></g><g transform="translate(1589.375, 68.5999984741211)" class="edgeLabel"><g transform="translate(-99.40625, -11.5)" class="label"><g><rect height="23" width="198.8125" y="-1" x="-2" style="" class="background"/><text style="" y="-10.1"><tspan dy="1.1em" y="-0.1em" x="0" class="text-outer-tspan"><tspan font-weight="normal" class="text-inner-tspan" font-style="normal">Outbox</tspan><tspan font-weight="normal" class="text-inner-tspan" font-style="normal"> inspection.failed</tspan></tspan></text></g></g></g><g transform="translate(1346.875, 342.96836280822754)" class="edgeLabel"><g transform="translate(-67.890625, -11.5)" class="label"><g><rect height="23" width="135.78125" y="-1" x="-2" style="" class="background"/><text style="" y="-10.1"><tspan dy="1.1em" y="-0.1em" x="0" class="text-outer-tspan"><tspan font-weight="normal" class="text-inner-tspan" font-style="normal">inspection.failed</tspan></tspan></text></g></g></g><g transform="translate(1835.4453125, 463.21836280822754)" class="edgeLabel"><g transform="translate(-91.0703125, -11.5)" class="label"><g><rect height="23" width="182.140625" y="-1" x="-2" style="" class="background"/><text style="" y="-10.1"><tspan dy="1.1em" y="-0.1em" x="0" class="text-outer-tspan"><tspan font-weight="normal" class="text-inner-tspan" font-style="normal">GET</tspan><tspan font-weight="normal" class="text-inner-tspan" font-style="normal"> internal</tspan><tspan font-weight="normal" class="text-inner-tspan" font-style="normal"> coverage</tspan></tspan></text></g></g></g><g class="edgeLabel"><g transform="translate(0, 0)" class="label"><text y="-10.1"><tspan dy="1.1em" y="-0.1em" x="0" class="text-outer-tspan"/></text></g></g><g class="edgeLabel"><g transform="translate(0, 0)" class="label"><text y="-10.1"><tspan dy="1.1em" y="-0.1em" x="0" class="text-outer-tspan"/></text></g></g><g class="edgeLabel"><g transform="translate(0, 0)" class="label"><text y="-10.1"><tspan dy="1.1em" y="-0.1em" x="0" class="text-outer-tspan"/></text></g></g><g class="edgeLabel"><g transform="translate(0, 0)" class="label"><text y="-10.1"><tspan dy="1.1em" y="-0.1em" x="0" class="text-outer-tspan"/></text></g></g><g class="edgeLabel"><g transform="translate(0, 0)" class="label"><text y="-10.1"><tspan dy="1.1em" y="-0.1em" x="0" class="text-outer-tspan"/></text></g></g><g class="edgeLabel"><g transform="translate(0, 0)" class="label"><text y="-10.1"><tspan dy="1.1em" y="-0.1em" x="0" class="text-outer-tspan"/></text></g></g><g class="edgeLabel"><g transform="translate(0, 0)" class="label"><text y="-10.1"><tspan dy="1.1em" y="-0.1em" x="0" class="text-outer-tspan"/></text></g></g><g class="edgeLabel"><g transform="translate(0, 0)" class="label"><text y="-10.1"><tspan dy="1.1em" y="-0.1em" x="0" class="text-outer-tspan"/></text></g></g><g class="edgeLabel"><g transform="translate(0, 0)" class="label"><text y="-10.1"><tspan dy="1.1em" y="-0.1em" x="0" class="text-outer-tspan"/></text></g></g><g class="edgeLabel"><g transform="translate(0, 0)" class="label"><text y="-10.1"><tspan dy="1.1em" y="-0.1em" x="0" class="text-outer-tspan"/></text></g></g></g><g class="nodes"><g transform="translate(138, 441.71836280822754)" id="flowchart-traffic-0" class="node default"><rect height="78" width="260" y="-39" x="-130" style="" class="basic label-container"/><g transform="translate(-100, -24)" style="" class="label"><rect/><foreignObject height="48" width="200"><div style="display: table; white-space: break-spaces; line-height: 1.5; max-width: 200px; text-align: center; width: 200px;" xmlns="http://www.w3.org/1999/xhtml"><span class="nodeLabel"><p>Traffic Generator - REST only</p></span></div></foreignObject></g></g><g transform="translate(384.625, 358.21836280822754)" id="flowchart-a-1" class="node default"><rect height="54" width="133.25" y="-27" x="-66.625" style="" class="basic label-container"/><g transform="translate(-36.625, -12)" style="" class="label"><rect/><foreignObject height="24" width="73.25"><div style="display: table-cell; white-space: nowrap; line-height: 1.5; max-width: 200px; text-align: center;" xmlns="http://www.w3.org/1999/xhtml"><span class="nodeLabel"><p>Vehicle A</p></span></div></foreignObject></g></g><g transform="translate(741.8203125, 342.96836280822754)" id="flowchart-adb-3" class="node default"><path transform="translate(-50.1484375, -36.19411887093418)" style="" class="basic label-container" d="M0,11.12941258062279 a50.1484375,11.12941258062279 0,0,0 100.296875,0 a50.1484375,11.12941258062279 0,0,0 -100.296875,0 l0,50.12941258062279 a50.1484375,11.12941258062279 0,0,0 100.296875,0 l0,-50.12941258062279"/><g transform="translate(-42.6484375, -2)" style="" class="label"><rect/><foreignObject height="24" width="85.296875"><div style="display: table-cell; white-space: nowrap; line-height: 1.5; max-width: 200px; text-align: center;" xmlns="http://www.w3.org/1999/xhtml"><span class="nodeLabel"><p>vehicle_db</p></span></div></foreignObject></g></g><g transform="translate(2037.79296875, 447.96836280822754)" id="flowchart-b-5" class="node default"><rect height="54" width="149.234375" y="-27" x="-74.6171875" style="" class="basic label-container"/><g transform="translate(-44.6171875, -12)" style="" class="label"><rect/><foreignObject height="24" width="89.234375"><div style="display: table-cell; white-space: nowrap; line-height: 1.5; max-width: 200px; text-align: center;" xmlns="http://www.w3.org/1999/xhtml"><span class="nodeLabel"><p>Warranty B</p></span></div></foreignObject></g></g><g transform="translate(2231.453125, 602.4180202484131)" id="flowchart-bdb-7" class="node default"><path transform="translate(-57.3828125, -37.44965786901271)" style="" class="basic label-container" d="M0,11.966438579341807 a57.3828125,11.966438579341807 0,0,0 114.765625,0 a57.3828125,11.966438579341807 0,0,0 -114.765625,0 l0,50.966438579341805 a57.3828125,11.966438579341807 0,0,0 114.765625,0 l0,-50.966438579341805"/><g transform="translate(-49.8828125, -2)" style="" class="label"><rect/><foreignObject height="24" width="99.765625"><div style="display: table-cell; white-space: nowrap; line-height: 1.5; max-width: 200px; text-align: center;" xmlns="http://www.w3.org/1999/xhtml"><span class="nodeLabel"><p>warranty_db</p></span></div></foreignObject></g></g><g transform="translate(2448.09375, 644.0264835357666)" id="flowchart-dbz-9" class="node default"><rect height="54" width="140.734375" y="-27" x="-70.3671875" style="" class="basic label-container"/><g transform="translate(-40.3671875, -12)" style="" class="label"><rect/><foreignObject height="24" width="80.734375"><div style="display: table-cell; white-space: nowrap; line-height: 1.5; max-width: 200px; text-align: center;" xmlns="http://www.w3.org/1999/xhtml"><span class="nodeLabel"><p>Debezium</p></span></div></foreignObject></g></g><g transform="translate(1133.1953125, 342.96836280822754)" id="flowchart-kafka-11" class="node default"><rect height="54" width="184.421875" y="-27" x="-92.2109375" style="" class="basic label-container"/><g transform="translate(-62.2109375, -12)" style="" class="label"><rect/><foreignObject height="24" width="124.421875"><div style="display: table-cell; white-space: nowrap; line-height: 1.5; max-width: 200px; text-align: center;" xmlns="http://www.w3.org/1999/xhtml"><span class="nodeLabel"><p>Kafka 3 brokers</p></span></div></foreignObject></g></g><g transform="translate(1589.375, 226.96836280822754)" id="flowchart-c-15" class="node default"><rect height="78" width="260" y="-39" x="-130" style="" class="basic label-container"/><g transform="translate(-100, -24)" style="" class="label"><rect/><foreignObject height="48" width="200"><div style="display: table; white-space: break-spaces; line-height: 1.5; max-width: 200px; text-align: center; width: 200px;" xmlns="http://www.w3.org/1999/xhtml"><span class="nodeLabel"><p>Inspection C - local projection</p></span></div></foreignObject></g></g><g transform="translate(2037.79296875, 48.44999885559082)" id="flowchart-cdb-17" class="node default"><path transform="translate(-62.84375, -38.301421091997014)" style="" class="basic label-container" d="M0,12.534280727998006 a62.84375,12.534280727998006 0,0,0 125.6875,0 a62.84375,12.534280727998006 0,0,0 -125.6875,0 l0,51.53428072799801 a62.84375,12.534280727998006 0,0,0 125.6875,0 l0,-51.53428072799801"/><g transform="translate(-55.34375, -2)" style="" class="label"><rect/><foreignObject height="24" width="110.6875"><div style="display: table-cell; white-space: nowrap; line-height: 1.5; max-width: 200px; text-align: center;" xmlns="http://www.w3.org/1999/xhtml"><span class="nodeLabel"><p>inspection_db</p></span></div></foreignObject></g></g><g transform="translate(1589.375, 342.96836280822754)" id="flowchart-d-21" class="node default"><rect height="54" width="128.640625" y="-27" x="-64.3203125" style="" class="basic label-container"/><g transform="translate(-34.3203125, -12)" style="" class="label"><rect/><foreignObject height="24" width="68.640625"><div style="display: table-cell; white-space: nowrap; line-height: 1.5; max-width: 200px; text-align: center;" xmlns="http://www.w3.org/1999/xhtml"><span class="nodeLabel"><p>Repair D</p></span></div></foreignObject></g></g><g transform="translate(2037.79296875, 171.98272895812988)" id="flowchart-ddb-25" class="node default"><path transform="translate(-45.1875, -35.23563551944283)" style="" class="basic label-container" d="M0,10.490423679628554 a45.1875,10.490423679628554 0,0,0 90.375,0 a45.1875,10.490423679628554 0,0,0 -90.375,0 l0,49.490423679628556 a45.1875,10.490423679628554 0,0,0 90.375,0 l0,-49.490423679628556"/><g transform="translate(-37.6875, -2)" style="" class="label"><rect/><foreignObject height="24" width="75.375"><div style="display: table-cell; white-space: nowrap; line-height: 1.5; max-width: 200px; text-align: center;" xmlns="http://www.w3.org/1999/xhtml"><span class="nodeLabel"><p>repair_db</p></span></div></foreignObject></g></g><g transform="translate(2668.609375, 369.3519973754883)" id="flowchart-metrics-27" class="node default"><rect height="54" width="200.296875" y="-27" x="-100.1484375" style="" class="basic label-container"/><g transform="translate(-70.1484375, -12)" style="" class="label"><rect/><foreignObject height="24" width="140.296875"><div style="display: table-cell; white-space: nowrap; line-height: 1.5; max-width: 200px; text-align: center;" xmlns="http://www.w3.org/1999/xhtml"><span class="nodeLabel"><p>Metrics Exporters</p></span></div></foreignObject></g></g><g transform="translate(2896.53125, 369.3519973754883)" id="flowchart-prometheus-41" class="node default"><rect height="54" width="155.546875" y="-27" x="-77.7734375" style="" class="basic label-container"/><g transform="translate(-47.7734375, -12)" style="" class="label"><rect/><foreignObject height="24" width="95.546875"><div style="display: table-cell; white-space: nowrap; line-height: 1.5; max-width: 200px; text-align: center;" xmlns="http://www.w3.org/1999/xhtml"><span class="nodeLabel"><p>Prometheus</p></span></div></foreignObject></g></g><g transform="translate(3086.390625, 369.3519973754883)" id="flowchart-grafana-42" class="node default"><rect height="54" width="124.171875" y="-27" x="-62.0859375" style="" class="basic label-container"/><g transform="translate(-32.0859375, -12)" style="" class="label"><rect/><foreignObject height="24" width="64.171875"><div style="display: table-cell; white-space: nowrap; line-height: 1.5; max-width: 200px; text-align: center;" xmlns="http://www.w3.org/1999/xhtml"><span class="nodeLabel"><p>Grafana</p></span></div></foreignObject></g></g></g></g></g></svg>