<svg aria-roledescription="flowchart-v2" role="graphics-document document" viewBox="-8 -8 1187.7578125 1011.3656005859375" style="max-width: 1187.76px; background-color: white;" class="flowchart" xmlns:xlink="http://www.w3.org/1999/xlink" xmlns="http://www.w3.org/2000/svg" width="100%" id="my-svg"><style>#my-svg{font-family:Arial,sans-serif;font-size:16px;fill:#172554;}#my-svg .error-icon{fill:#f8fafc;}#my-svg .error-text{fill:#070503;stroke:#070503;}#my-svg .edge-thickness-normal{stroke-width:1px;}#my-svg .edge-thickness-thick{stroke-width:3.5px;}#my-svg .edge-pattern-solid{stroke-dasharray:0;}#my-svg .edge-thickness-invisible{stroke-width:0;fill:none;}#my-svg .edge-pattern-dashed{stroke-dasharray:3;}#my-svg .edge-pattern-dotted{stroke-dasharray:2;}#my-svg .marker{fill:#475569;stroke:#475569;}#my-svg .marker.cross{stroke:#475569;}#my-svg svg{font-family:Arial,sans-serif;font-size:16px;}#my-svg p{margin:0;}#my-svg .label{font-family:Arial,sans-serif;color:#172554;}#my-svg .cluster-label text{fill:#070503;}#my-svg .cluster-label span{color:#070503;}#my-svg .cluster-label span p{background-color:transparent;}#my-svg .label text,#my-svg span{fill:#172554;color:#172554;}#my-svg .node rect,#my-svg .node circle,#my-svg .node ellipse,#my-svg .node polygon,#my-svg .node path{fill:#eff6ff;stroke:#3b82f6;stroke-width:1px;}#my-svg .rough-node .label text,#my-svg .node .label text,#my-svg .image-shape .label,#my-svg .icon-shape .label{text-anchor:middle;}#my-svg .node .katex path{fill:#000;stroke:#000;stroke-width:1px;}#my-svg .rough-node .label,#my-svg .node .label,#my-svg .image-shape .label,#my-svg .icon-shape .label{text-align:center;}#my-svg .node.clickable{cursor:pointer;}#my-svg .root .anchor path{fill:#475569!important;stroke-width:0;stroke:#475569;}#my-svg .arrowheadPath{fill:#0b0b0b;}#my-svg .edgePath .path{stroke:#475569;stroke-width:2.0px;}#my-svg .flowchart-link{stroke:#475569;fill:none;}#my-svg .edgeLabel{background-color:#f0fdf4;text-align:center;}#my-svg .edgeLabel p{background-color:#f0fdf4;}#my-svg .edgeLabel rect{opacity:0.5;background-color:#f0fdf4;fill:#f0fdf4;}#my-svg .labelBkg{background-color:rgba(240, 253, 244, 0.5);}#my-svg .cluster rect{fill:#f8fafc;stroke:hsl(210, 0%, 88.0392156863%);stroke-width:1px;}#my-svg .cluster text{fill:#070503;}#my-svg .cluster span{color:#070503;}#my-svg div.mermaidTooltip{position:absolute;text-align:center;max-width:200px;padding:2px;font-family:Arial,sans-serif;font-size:12px;background:#f8fafc;border:1px solid hsl(210, 0%, 88.0392156863%);border-radius:2px;pointer-events:none;z-index:100;}#my-svg .flowchartTitleText{text-anchor:middle;font-size:18px;fill:#172554;}#my-svg rect.text{fill:none;stroke-width:0;}#my-svg .icon-shape,#my-svg .image-shape{background-color:#f0fdf4;text-align:center;}#my-svg .icon-shape p,#my-svg .image-shape p{background-color:#f0fdf4;padding:2px;}#my-svg .icon-shape rect,#my-svg .image-shape rect{opacity:0.5;background-color:#f0fdf4;fill:#f0fdf4;}#my-svg :root{--mermaid-font-family:"trebuchet ms",verdana,arial,sans-serif;}</style><g><marker orient="auto" markerHeight="8" markerWidth="8" markerUnits="userSpaceOnUse" refY="5" refX="5" viewBox="0 0 10 10" class="marker flowchart-v2" id="my-svg_flowchart-v2-pointEnd"><path style="stroke-width: 1; stroke-dasharray: 1, 0;" class="arrowMarkerPath" d="M 0 0 L 10 5 L 0 10 z"/></marker><marker orient="auto" markerHeight="8" markerWidth="8" markerUnits="userSpaceOnUse" refY="5" refX="4.5" viewBox="0 0 10 10" class="marker flowchart-v2" id="my-svg_flowchart-v2-pointStart"><path style="stroke-width: 1; stroke-dasharray: 1, 0;" class="arrowMarkerPath" d="M 0 5 L 10 10 L 10 0 z"/></marker><marker orient="auto" markerHeight="11" markerWidth="11" markerUnits="userSpaceOnUse" refY="5" refX="11" viewBox="0 0 10 10" class="marker flowchart-v2" id="my-svg_flowchart-v2-circleEnd"><circle style="stroke-width: 1; stroke-dasharray: 1, 0;" class="arrowMarkerPath" r="5" cy="5" cx="5"/></marker><marker orient="auto" markerHeight="11" markerWidth="11" markerUnits="userSpaceOnUse" refY="5" refX="-1" viewBox="0 0 10 10" class="marker flowchart-v2" id="my-svg_flowchart-v2-circleStart"><circle style="stroke-width: 1; stroke-dasharray: 1, 0;" class="arrowMarkerPath" r="5" cy="5" cx="5"/></marker><marker orient="auto" markerHeight="11" markerWidth="11" markerUnits="userSpaceOnUse" refY="5.2" refX="12" viewBox="0 0 11 11" class="marker cross flowchart-v2" id="my-svg_flowchart-v2-crossEnd"><path style="stroke-width: 2; stroke-dasharray: 1, 0;" class="arrowMarkerPath" d="M 1,1 l 9,9 M 10,1 l -9,9"/></marker><marker orient="auto" markerHeight="11" markerWidth="11" markerUnits="userSpaceOnUse" refY="5.2" refX="-1" viewBox="0 0 11 11" class="marker cross flowchart-v2" id="my-svg_flowchart-v2-crossStart"><path style="stroke-width: 2; stroke-dasharray: 1, 0;" class="arrowMarkerPath" d="M 1,1 l 9,9 M 10,1 l -9,9"/></marker><g class="root"><g class="clusters"/><g class="edgePaths"><path marker-end="url(#my-svg_flowchart-v2-pointEnd)" style="" class="edge-thickness-normal edge-pattern-solid edge-thickness-normal edge-pattern-solid flowchart-link" id="L_receive_run_0" d="M448.574,79.694L427.827,84.912C407.081,90.129,365.587,100.565,344.84,109.282C324.094,118,324.094,125,324.094,128.5L324.094,132"/><path marker-end="url(#my-svg_flowchart-v2-pointEnd)" style="" class="edge-thickness-normal edge-pattern-solid edge-thickness-normal edge-pattern-solid flowchart-link" id="L_run_outcome_1" d="M324.094,190L324.094,194.167C324.094,198.333,324.094,206.667,324.164,214.417C324.234,222.167,324.375,229.334,324.445,232.917L324.515,236.501"/><path marker-end="url(#my-svg_flowchart-v2-pointEnd)" style="" class="edge-thickness-normal edge-pattern-solid edge-thickness-normal edge-pattern-solid flowchart-link" id="L_outcome_ack_2" d="M284.151,327.089L259.019,341.296C233.887,355.503,183.623,383.917,158.491,411.007C133.359,438.098,133.359,463.865,133.359,476.748L133.359,489.631"/><path marker-end="url(#my-svg_flowchart-v2-pointEnd)" style="" class="edge-thickness-normal edge-pattern-solid edge-thickness-normal edge-pattern-solid flowchart-link" id="L_outcome_retry_3" d="M347.385,344.74L353.653,356.005C359.921,367.27,372.456,389.801,383.724,408.073C394.991,426.346,404.989,440.36,409.989,447.368L414.988,454.375"/><path marker-end="url(#my-svg_flowchart-v2-pointEnd)" style="" class="edge-thickness-normal edge-pattern-solid edge-thickness-normal edge-pattern-solid flowchart-link" id="L_retry_receive_4" d="M529.921,457.631L538.03,450.081C546.139,442.531,562.357,427.431,570.465,401.745C578.574,376.059,578.574,339.787,578.574,306.899C578.574,274.01,578.574,244.505,578.574,221.086C578.574,197.667,578.574,180.333,578.574,163C578.574,145.667,578.574,128.333,578.574,116.167C578.574,104,578.574,97,578.574,93.5L578.574,90"/><path marker-end="url(#my-svg_flowchart-v2-pointEnd)" style="" class="edge-thickness-normal edge-pattern-solid edge-thickness-normal edge-pattern-solid flowchart-link" id="L_outcome_reject_5" d="M374.276,317.849L431.045,333.596C487.814,349.343,601.352,380.837,658.121,414.634C714.891,448.431,714.891,484.531,714.891,517.248C714.891,549.965,714.891,579.298,714.891,608.526C714.891,637.754,714.891,666.876,714.891,681.437L714.891,695.998"/><path marker-end="url(#my-svg_flowchart-v2-pointEnd)" style="" class="edge-thickness-normal edge-pattern-solid edge-thickness-normal edge-pattern-solid flowchart-link" id="L_reject_dlq_6" d="M714.891,777.998L714.891,795.143C714.891,812.287,714.891,846.577,731.089,869.578C747.287,892.579,779.683,904.292,795.882,910.149L812.08,916.006"/><path marker-end="url(#my-svg_flowchart-v2-pointEnd)" style="" class="edge-thickness-normal edge-pattern-solid edge-thickness-normal edge-pattern-solid flowchart-link" id="L_outcome_lost_7" d="M379.117,313.008L479.913,329.562C580.708,346.116,782.299,379.223,883.095,404.661C983.891,430.098,983.891,447.865,983.891,456.748L983.891,465.631"/><path marker-end="url(#my-svg_flowchart-v2-pointEnd)" style="" class="edge-thickness-normal edge-pattern-solid edge-thickness-normal edge-pattern-solid flowchart-link" id="L_lost_limit_8" d="M983.891,571.631L983.891,577.798C983.891,583.965,983.891,596.298,990.56,612.958C997.23,629.618,1010.569,650.605,1017.239,661.099L1023.908,671.592"/><path marker-end="url(#my-svg_flowchart-v2-pointEnd)" style="" class="edge-thickness-normal edge-pattern-solid edge-thickness-normal edge-pattern-solid flowchart-link" id="L_limit_receive_9" d="M1107.727,674.968L1114.588,663.912C1121.448,652.856,1135.17,630.743,1142.03,605.021C1148.891,579.298,1148.891,549.965,1148.891,517.248C1148.891,484.531,1148.891,448.431,1148.891,412.245C1148.891,376.059,1148.891,339.787,1148.891,306.899C1148.891,274.01,1148.891,244.505,1148.891,221.086C1148.891,197.667,1148.891,180.333,1148.891,163C1148.891,145.667,1148.891,128.333,1076.167,111.506C1003.444,94.678,857.996,78.356,785.273,70.195L712.549,62.034"/><path marker-end="url(#my-svg_flowchart-v2-pointEnd)" style="" class="edge-thickness-normal edge-pattern-solid edge-thickness-normal edge-pattern-solid flowchart-link" id="L_limit_dlq_10" d="M1066.891,844.866L1066.807,850.866C1066.724,856.866,1066.557,868.866,1055.567,880.637C1044.576,892.409,1022.761,903.952,1011.854,909.723L1000.947,915.495"/></g><g class="edgeLabels"><g><rect style="stroke: none" class="background"/></g><g><rect style="stroke: none" class="background"/></g><g><rect style="stroke: none" class="background"/></g><g><rect style="stroke: none" class="background"/></g><g><rect style="stroke: none" class="background"/></g><g class="edgeLabel"><g transform="translate(0, 0)" class="label"><text y="-10.1"><tspan dy="1.1em" y="-0.1em" x="0" class="text-outer-tspan"/></text></g></g><g class="edgeLabel"><g transform="translate(0, 0)" class="label"><text y="-10.1"><tspan dy="1.1em" y="-0.1em" x="0" class="text-outer-tspan"/></text></g></g><g transform="translate(133.359375, 412.33124923706055)" class="edgeLabel"><g transform="translate(-93.625, -11.5)" class="label"><g><rect height="23" width="187.25" y="-1" x="-2" style="" class="background"/><text style="" y="-10.1"><tspan dy="1.1em" y="-0.1em" x="0" class="text-outer-tspan"><tspan font-weight="normal" class="text-inner-tspan" font-style="normal">generated</tspan><tspan font-weight="normal" class="text-inner-tspan" font-style="normal"> or</tspan><tspan font-weight="normal" class="text-inner-tspan" font-style="normal"> duplicate</tspan></tspan></text></g></g></g><g transform="translate(384.9921875, 412.33124923706055)" class="edgeLabel"><g transform="translate(-84.28125, -11.5)" class="label"><g><rect height="23" width="168.5625" y="-1" x="-2" style="" class="background"/><text style="" y="-10.1"><tspan dy="1.1em" y="-0.1em" x="0" class="text-outer-tspan"><tspan font-weight="normal" class="text-inner-tspan" font-style="normal">transient,</tspan><tspan font-weight="normal" class="text-inner-tspan" font-style="normal"> retries</tspan><tspan font-weight="normal" class="text-inner-tspan" font-style="normal"> left</tspan></tspan></text></g></g></g><g class="edgeLabel"><g transform="translate(0, 0)" class="label"><text y="-10.1"><tspan dy="1.1em" y="-0.1em" x="0" class="text-outer-tspan"/></text></g></g><g transform="translate(714.890625, 520.6312484741211)" class="edgeLabel"><g transform="translate(-87.6328125, -20.299999237060547)" class="label"><g><rect height="40.599998474121094" width="175.265625" y="-1" x="-2" style="" class="background"/><text style="" y="-10.1"><tspan dy="1.1em" y="-0.1em" x="0" class="text-outer-tspan"><tspan font-weight="normal" class="text-inner-tspan" font-style="normal">permanent,</tspan><tspan font-weight="normal" class="text-inner-tspan" font-style="normal"> or</tspan><tspan font-weight="normal" class="text-inner-tspan" font-style="normal"> retries</tspan></tspan><tspan dy="1.1em" y="1em" x="0" class="text-outer-tspan"><tspan font-weight="normal" class="text-inner-tspan" font-style="normal">exhausted</tspan></tspan></text></g></g></g><g class="edgeLabel"><g transform="translate(0, 0)" class="label"><text y="-10.1"><tspan dy="1.1em" y="-0.1em" x="0" class="text-outer-tspan"/></text></g></g><g transform="translate(983.890625, 412.33124923706055)" class="edgeLabel"><g transform="translate(-73.515625, -20.299999237060547)" class="label"><g><rect height="40.599998474121094" width="147.03125" y="-1" x="-2" style="" class="background"/><text style="" y="-10.1"><tspan dy="1.1em" y="-0.1em" x="0" class="text-outer-tspan"><tspan font-weight="normal" class="text-inner-tspan" font-style="normal">worker</tspan><tspan font-weight="normal" class="text-inner-tspan" font-style="normal"> process</tspan><tspan font-weight="normal" class="text-inner-tspan" font-style="normal"> or</tspan></tspan><tspan dy="1.1em" y="1em" x="0" class="text-outer-tspan"><tspan font-weight="normal" class="text-inner-tspan" font-style="normal">container</tspan><tspan font-weight="normal" class="text-inner-tspan" font-style="normal"> dies</tspan></tspan></text></g></g></g><g class="edgeLabel"><g transform="translate(0, 0)" class="label"><text y="-10.1"><tspan dy="1.1em" y="-0.1em" x="0" class="text-outer-tspan"/></text></g></g><g transform="translate(1148.890625, 303.515625)" class="edgeLabel"><g transform="translate(-11.96875, -11.5)" class="label"><g><rect height="23" width="23.9375" y="-1" x="-2" style="" class="background"/><text style="" y="-10.1"><tspan dy="1.1em" y="-0.1em" x="0" class="text-outer-tspan"><tspan font-weight="normal" class="text-inner-tspan" font-style="normal">no</tspan></tspan></text></g></g></g><g transform="translate(1066.390625, 880.8656234741211)" class="edgeLabel"><g transform="translate(-15.828125, -11.5)" class="label"><g><rect height="23" width="31.65625" y="-1" x="-2" style="" class="background"/><text style="" y="-10.1"><tspan dy="1.1em" y="-0.1em" x="0" class="text-outer-tspan"><tspan font-weight="normal" class="text-inner-tspan" font-style="normal">yes</tspan></tspan></text></g></g></g></g><g class="nodes"><g transform="translate(578.57421875, 47)" id="flowchart-receive-0" class="node default"><rect height="78" width="260" y="-39" x="-130" style="" class="basic label-container"/><g transform="translate(-100, -24)" style="" class="label"><rect/><foreignObject height="48" width="200"><div style="display: table; white-space: break-spaces; line-height: 1.5; max-width: 200px; text-align: center; width: 200px;" xmlns="http://www.w3.org/1999/xhtml"><span class="nodeLabel"><p>Worker receives task (unacked)</p></span></div></foreignObject></g></g><g transform="translate(324.09375, 163)" id="flowchart-run-1" class="node default"><rect height="54" width="239.0625" y="-27" x="-119.53125" style="" class="basic label-container"/><g transform="translate(-89.53125, -12)" style="" class="label"><rect/><foreignObject height="24" width="179.0625"><div style="display: table-cell; white-space: nowrap; line-height: 1.5; max-width: 200px; text-align: center;" xmlns="http://www.w3.org/1999/xhtml"><span class="nodeLabel"><p>Claim, render, commit</p></span></div></foreignObject></g></g><g transform="translate(324.09375, 303.515625)" id="flowchart-outcome-3" class="node default"><polygon transform="translate(-63.515625,63.515625)" class="label-container" points="63.515625,0 127.03125,-63.515625 63.515625,-127.03125 0,-63.515625"/><g transform="translate(-36.515625, -12)" style="" class="label"><rect/><foreignObject height="24" width="73.03125"><div style="display: table-cell; white-space: nowrap; line-height: 1.5; max-width: 200px; text-align: center;" xmlns="http://www.w3.org/1999/xhtml"><span class="nodeLabel"><p>Outcome</p></span></div></foreignObject></g></g><g transform="translate(133.359375, 520.6312484741211)" id="flowchart-ack-5" class="node default"><rect height="54" width="250.71875" y="-27" x="-125.359375" style="" class="basic label-container"/><g transform="translate(-95.359375, -12)" style="" class="label"><rect/><foreignObject height="24" width="190.71875"><div style="display: table-cell; white-space: nowrap; line-height: 1.5; max-width: 200px; text-align: center;" xmlns="http://www.w3.org/1999/xhtml"><span class="nodeLabel"><p>ACK: message removed</p></span></div></foreignObject></g></g><g transform="translate(462.2578125, 520.6312484741211)" id="flowchart-retry-7" class="node default"><rect height="126" width="260" y="-63" x="-130" style="" class="basic label-container"/><g transform="translate(-100, -48)" style="" class="label"><rect/><foreignObject height="96" width="200"><div style="display: table; white-space: break-spaces; line-height: 1.5; max-width: 200px; text-align: center; width: 200px;" xmlns="http://www.w3.org/1999/xhtml"><span class="nodeLabel"><p>Publish copy with retries+1 via celery_delayed_*, then ACK</p></span></div></foreignObject></g></g><g transform="translate(714.890625, 738.9984359741211)" id="flowchart-reject-11" class="node default"><rect height="78" width="260" y="-39" x="-130" style="" class="basic label-container"/><g transform="translate(-100, -24)" style="" class="label"><rect/><foreignObject height="48" width="200"><div style="display: table; white-space: break-spaces; line-height: 1.5; max-width: 200px; text-align: center; width: 200px;" xmlns="http://www.w3.org/1999/xhtml"><span class="nodeLabel"><p>basic.reject requeue=false</p></span></div></foreignObject></g></g><g transform="translate(923.70703125, 956.3656234741211)" id="flowchart-dlq-13" class="node default"><rect height="78" width="260" y="-39" x="-130" style="" class="basic label-container"/><g transform="translate(-100, -24)" style="" class="label"><rect/><foreignObject height="48" width="200"><div style="display: table; white-space: break-spaces; line-height: 1.5; max-width: 200px; text-align: center; width: 200px;" xmlns="http://www.w3.org/1999/xhtml"><span class="nodeLabel"><p>DLX -&gt; inspection.report.dlq</p></span></div></foreignObject></g></g><g transform="translate(983.890625, 520.6312484741211)" id="flowchart-lost-15" class="node default"><rect height="102" width="260" y="-51" x="-130" style="" class="basic label-container"/><g transform="translate(-100, -36)" style="" class="label"><rect/><foreignObject height="72" width="200"><div style="display: table; white-space: break-spaces; line-height: 1.5; max-width: 200px; text-align: center; width: 200px;" xmlns="http://www.w3.org/1999/xhtml"><span class="nodeLabel"><p>No ACK: RabbitMQ returns message, redelivered=true</p></span></div></foreignObject></g></g><g transform="translate(1066.390625, 738.9984359741211)" id="flowchart-limit-17" class="node default"><polygon transform="translate(-105.3671875,105.3671875)" class="label-container" points="105.3671875,0 210.734375,-105.3671875 105.3671875,-210.734375 0,-105.3671875"/><g transform="translate(-78.3671875, -12)" style="" class="label"><rect/><foreignObject height="24" width="156.734375"><div style="display: table-cell; white-space: nowrap; line-height: 1.5; max-width: 200px; text-align: center;" xmlns="http://www.w3.org/1999/xhtml"><span class="nodeLabel"><p>delivery count &gt; 5?</p></span></div></foreignObject></g></g></g></g></g></svg>